<?xml version="1.0" standalone="no"?>
<!DOCTYPE svg PUBLIC "-//W3C//DTD SVG 20010904//EN"
 "http://www.w3.org/TR/2001/REC-SVG-20010904/DTD/svg10.dtd">
<svg version="1.0" xmlns="http://www.w3.org/2000/svg"
 width="322.000000pt" height="322.000000pt" viewBox="0 0 322.000000 322.000000"
 preserveAspectRatio="xMidYMid meet">
<metadata>
Created by potrace 1.11, written by Peter Selinger 2001-2013
</metadata>
<g transform="translate(0.000000,322.000000) scale(0.100000,-0.100000)"
fill="#000000" stroke="none">
<path d="M0 1610 l0 -1610 1610 0 1610 0 0 1610 0 1610 -1610 0 -1610 0 0
-1610z m2805 920 l160 -160 -140 -140 -140 -140 -162 162 -163 163 137 137
c76 76 140 138 143 138 3 0 77 -72 165 -160z m-553 -307 c21 -20 38 -42 38
-48 0 -5 -236 -246 -525 -535 -289 -289 -525 -530 -525 -536 0 -7 19 -28 41
-49 l42 -37 533 533 534 534 72 -73 73 -72 -703 -703 -704 -704 -276 -126
c-153 -69 -285 -129 -294 -133 -16 -5 -15 1 6 47 13 30 72 162 131 294 l107
240 702 703 c385 386 703 702 706 702 2 0 21 -17 42 -37z"/>
<path d="M1018 893 c-47 -48 -67 -80 -112 -182 -31 -68 -54 -126 -52 -129 3
-2 61 21 129 53 104 47 133 66 183 116 65 66 64 79 -9 79 -41 0 -50 12 -62 83
-3 20 -9 37 -13 37 -4 0 -33 -26 -64 -57z"/>
</g>
</svg>
